
<svg width="16" height="16" viewBox="0 0 16 16" fill="none" xmlns="http://www.w3.org/2000/svg">
<path d="M7.28 9.79C7.28 9.52333 7.32333 9.29 7.41 9.09C7.50333 8.88333 7.61333 8.71 7.74 8.57C7.87333 8.43 8.04667 8.26333 8.26 8.07C8.52667 7.83667 8.72333 7.63667 8.85 7.47C8.97667 7.29667 9.04 7.09 9.04 6.85C9.04 6.52333 8.91333 6.26333 8.66 6.07C8.40667 5.87 8.05667 5.77 7.61 5.77C6.83 5.77 6.23333 6.03333 5.82 6.56L5.09 6.04C5.37 5.68 5.72667 5.40333 6.16 5.21C6.6 5.01667 7.10667 4.92 7.68 4.92C8.40667 4.92 8.98333 5.08 9.41 5.4C9.83667 5.71333 10.05 6.14667 10.05 6.7C10.05 6.97333 10.0033 7.21667 9.91 7.43C9.82333 7.63667 9.71667 7.81 9.59 7.95C9.46333 8.09 9.29333 8.25667 9.08 8.45C8.80667 8.69667 8.60333 8.91333 8.47 9.1C8.34333 9.28667 8.28 9.51667 8.28 9.79H7.28ZM7.79 12.06C7.60333 12.06 7.44667 12 7.32 11.88C7.2 11.7533 7.14 11.6 7.14 11.42C7.14 11.24 7.2 11.09 7.32 10.97C7.44667 10.8433 7.60333 10.78 7.79 10.78C7.97667 10.78 8.13 10.8433 8.25 10.97C8.37 11.09 8.43 11.24 8.43 11.42C8.43 11.6 8.36667 11.7533 8.24 11.88C8.12 12 7.97 12.06 7.79 12.06Z" fill="black" fill-opacity="0.79"/>
<circle cx="8" cy="8" r="7.5" stroke="#2B2A29"/>
</svg>
