<svg width="23" height="23" viewBox="0 0 23 23" fill="none" xmlns="http://www.w3.org/2000/svg">
<circle cx="11.5" cy="11.5" r="11.5" fill="url(#paint0_linear_1_5156)"/>
<path d="M14.6144 11.5005C14.6144 10.8662 14.4262 10.2462 14.0736 9.71885C13.7211 9.19153 13.22 8.78066 12.6338 8.53825C12.0477 8.29583 11.4027 8.23277 10.7807 8.35705C10.1587 8.48132 9.58752 8.78734 9.13949 9.23637C8.69146 9.68541 8.38672 10.2573 8.26385 10.8796C8.14097 11.5019 8.20548 12.1466 8.44921 12.7323C8.69294 13.3179 9.10493 13.818 9.63303 14.1694C10.1611 14.5208 10.7816 14.7076 11.4159 14.7062C12.2649 14.7043 13.0784 14.3657 13.678 13.7647C14.2776 13.1638 14.6144 12.3495 14.6144 11.5005ZM11.4159 13.5849C11.0103 13.5863 10.6133 13.4676 10.275 13.2439C9.93666 13.0201 9.67209 12.7012 9.51459 12.3274C9.3571 11.9536 9.31372 11.5416 9.38992 11.1431C9.46613 10.7447 9.6585 10.3778 9.94282 10.0884C10.2271 9.79914 10.5907 9.60041 10.9877 9.51729C11.3848 9.43418 11.7975 9.47038 12.174 9.62135C12.5505 9.77232 12.8739 10.0313 13.1035 10.3657C13.3332 10.7001 13.4587 11.0949 13.4644 11.5005C13.4682 11.7723 13.4181 12.0421 13.3169 12.2944C13.2158 12.5466 13.0656 12.7763 12.8751 12.9702C12.6846 13.164 12.4575 13.3181 12.2071 13.4237C11.9566 13.5292 11.6877 13.584 11.4159 13.5849Z" fill="white"/>
<path d="M11.4113 3.90355H11.4976V2.76074H11.4113C9.12193 2.76193 6.92363 3.6577 5.28543 5.25697C3.64722 6.85623 2.69883 9.03235 2.64258 11.3211H3.79258C3.84685 9.33611 4.67321 7.45062 6.09596 6.06545C7.51872 4.68028 9.42565 3.90468 11.4113 3.90355Z" fill="white"/>
<path d="M20.1845 11.5005H19.0416C19.0466 13.4803 18.2814 15.3843 16.9079 16.8102C15.5344 18.236 13.6602 19.0718 11.6816 19.1408V20.2908C13.9647 20.2198 16.1302 19.2622 17.7189 17.6211C19.3077 15.98 20.1946 13.7846 20.1916 11.5005H20.1845Z" fill="white"/>
<path d="M11.5019 6.46842V5.34717H11.4156C9.81161 5.34992 8.27119 5.97464 7.11837 7.08993C5.96555 8.20521 5.2902 9.72413 5.23438 11.3272H6.38438C6.43638 10.028 6.98933 8.79938 7.9273 7.89894C8.86526 6.99849 10.1154 6.49613 11.4156 6.49717L11.5019 6.46842Z" fill="white"/>
<path d="M11.6816 16.5317V17.6817C13.2739 17.6114 14.7776 16.9295 15.8795 15.778C16.9815 14.6265 17.5967 13.0943 17.597 11.5005H16.447C16.4488 12.79 15.9553 14.031 15.0686 14.9673C14.1818 15.9036 12.9694 16.4636 11.6816 16.5317Z" fill="white"/>
<defs>
<linearGradient id="paint0_linear_1_5156" x1="23" y1="11.5" x2="-2.9787e-08" y2="11.5" gradientUnits="userSpaceOnUse">
<stop stop-color="#D9281C"/>
<stop offset="1" stop-color="#FF5145"/>
</linearGradient>
</defs>
</svg>
