<svg width="50" height="48" viewBox="0 0 50 48" fill="none" xmlns="http://www.w3.org/2000/svg">
<path d="M39.4286 28.5C41.0065 28.5 42.2857 27.2464 42.2857 25.7C42.2857 24.1536 41.0065 22.9 39.4286 22.9C37.8506 22.9 36.5714 24.1536 36.5714 25.7C36.5714 27.2464 37.8506 28.5 39.4286 28.5Z" fill="white"/>
<path d="M18.7143 28.5C20.2923 28.5 21.5715 27.2464 21.5715 25.7C21.5715 24.1536 20.2923 22.9 18.7143 22.9C17.1364 22.9 15.8572 24.1536 15.8572 25.7C15.8572 27.2464 17.1364 28.5 18.7143 28.5Z" fill="white"/>
<path d="M41.5714 19.4H19.265L19.7414 18.6426C19.9457 18.3178 20.0057 17.9251 19.9079 17.5555L19.4429 15.8013L40.145 14.7471C40.93 14.7079 41.5714 14.045 41.5714 13.275V4C41.5714 3.23 40.9286 2.6 40.1429 2.6H15.9421L15.6629 1.5479C15.5833 1.24783 15.4043 0.982129 15.1541 0.792478C14.9038 0.602828 14.5964 0.499956 14.28 0.5H9.42857C9.04969 0.5 8.68633 0.6475 8.41842 0.910051C8.15051 1.1726 8 1.5287 8 1.9C8 2.2713 8.15051 2.6274 8.41842 2.88995C8.68633 3.1525 9.04969 3.3 9.42857 3.3H13.1757L16.99 17.6815L15.49 20.065C15.3566 20.2771 15.2834 20.5202 15.278 20.7693C15.2726 21.0184 15.3352 21.2644 15.4593 21.4818C15.5829 21.6995 15.7636 21.8809 15.9828 22.0072C16.2019 22.1334 16.4515 22.2 16.7057 22.2H41.5714C41.9503 22.2 42.3137 22.0525 42.5816 21.79C42.8495 21.5274 43 21.1713 43 20.8C43 20.4287 42.8495 20.0726 42.5816 19.8101C42.3137 19.5475 41.9503 19.4 41.5714 19.4Z" fill="white"/>
<path d="M7.3418 44.5H6.13477L2.17383 40.1582V44.5H1.17773V35.9336H2.17383V40.082L6.03516 35.9336H7.17773L3.38672 40.0938L7.3418 44.5ZM13.9219 41.2832C13.9219 42.3301 13.6582 43.1484 13.1309 43.7383C12.6035 44.3242 11.875 44.6172 10.9453 44.6172C10.3711 44.6172 9.86133 44.4824 9.41602 44.2129C8.9707 43.9434 8.62695 43.5566 8.38477 43.0527C8.14258 42.5488 8.02148 41.959 8.02148 41.2832C8.02148 40.2363 8.2832 39.4219 8.80664 38.8398C9.33008 38.2539 10.0566 37.9609 10.9863 37.9609C11.8848 37.9609 12.5977 38.2598 13.125 38.8574C13.6562 39.4551 13.9219 40.2637 13.9219 41.2832ZM9.0293 41.2832C9.0293 42.1035 9.19336 42.7285 9.52148 43.1582C9.84961 43.5879 10.332 43.8027 10.9688 43.8027C11.6055 43.8027 12.0879 43.5898 12.416 43.1641C12.748 42.7344 12.9141 42.1074 12.9141 41.2832C12.9141 40.4668 12.748 39.8477 12.416 39.4258C12.0879 39 11.6016 38.7871 10.957 38.7871C10.3203 38.7871 9.83984 38.9961 9.51562 39.4141C9.19141 39.832 9.0293 40.4551 9.0293 41.2832ZM18.6211 44.6172C18.2031 44.6172 17.8203 44.541 17.4727 44.3887C17.1289 44.2324 16.8398 43.9941 16.6055 43.6738H16.5352C16.582 44.0488 16.6055 44.4043 16.6055 44.7402V47.3828H15.6328V38.0781H16.4238L16.5586 38.957H16.6055C16.8555 38.6055 17.1465 38.3516 17.4785 38.1953C17.8105 38.0391 18.1914 37.9609 18.6211 37.9609C19.4727 37.9609 20.1289 38.252 20.5898 38.834C21.0547 39.416 21.2871 40.2324 21.2871 41.2832C21.2871 42.3379 21.0508 43.1582 20.5781 43.7441C20.1094 44.3262 19.457 44.6172 18.6211 44.6172ZM18.4805 38.7871C17.8242 38.7871 17.3496 38.9688 17.0566 39.332C16.7637 39.6953 16.6133 40.2734 16.6055 41.0664V41.2832C16.6055 42.1855 16.7559 42.832 17.0566 43.2227C17.3574 43.6094 17.8398 43.8027 18.5039 43.8027C19.0586 43.8027 19.4922 43.5781 19.8047 43.1289C20.1211 42.6797 20.2793 42.0605 20.2793 41.2715C20.2793 40.4707 20.1211 39.8574 19.8047 39.4316C19.4922 39.002 19.0508 38.7871 18.4805 38.7871ZM24.2168 40.7441C25.4316 40.7441 26.0391 40.4082 26.0391 39.7363C26.0391 39.1035 25.5469 38.7871 24.5625 38.7871C24.2617 38.7871 23.9883 38.8145 23.7422 38.8691C23.4961 38.9238 23.1738 39.0332 22.7754 39.1973L22.4297 38.4062C23.0938 38.1094 23.8184 37.9609 24.6035 37.9609C25.3418 37.9609 25.9238 38.1133 26.3496 38.418C26.7754 38.7188 26.9883 39.1309 26.9883 39.6543C26.9883 40.373 26.5879 40.8438 25.7871 41.0664V41.1133C26.2793 41.2578 26.6387 41.4648 26.8652 41.7344C27.0918 42 27.2051 42.334 27.2051 42.7363C27.2051 43.3301 26.9648 43.793 26.4844 44.125C26.0078 44.4531 25.3477 44.6172 24.5039 44.6172C23.5781 44.6172 22.8633 44.4785 22.3594 44.2012V43.3105C23.0742 43.6465 23.7969 43.8145 24.5273 43.8145C25.0898 43.8145 25.5137 43.7188 25.7988 43.5273C26.0879 43.332 26.2324 43.0527 26.2324 42.6895C26.2324 41.9434 25.625 41.5703 24.4102 41.5703H23.5195V40.7441H24.2168ZM29.707 38.0781V42.1504L29.666 43.2168L29.6484 43.5508L33.123 38.0781H34.3359V44.5H33.4277V40.5742L33.4453 39.8008L33.4746 39.0391L30.0059 44.5H28.793V38.0781H29.707ZM37.3711 38.0781V40.7676H40.9688V38.0781H41.9414V44.5H40.9688V41.6055H37.3711V44.5H36.3984V38.0781H37.3711ZM47.9531 44.5L47.7598 43.5859H47.7129C47.3926 43.9883 47.0723 44.2617 46.752 44.4062C46.4355 44.5469 46.0391 44.6172 45.5625 44.6172C44.9258 44.6172 44.4258 44.4531 44.0625 44.125C43.7031 43.7969 43.5234 43.3301 43.5234 42.7246C43.5234 41.4277 44.5605 40.748 46.6348 40.6855L47.7246 40.6504V40.252C47.7246 39.748 47.6152 39.377 47.3965 39.1387C47.1816 38.8965 46.8359 38.7754 46.3594 38.7754C45.8242 38.7754 45.2188 38.9395 44.543 39.2676L44.2441 38.5234C44.5605 38.3516 44.9062 38.2168 45.2812 38.1191C45.6602 38.0215 46.0391 37.9727 46.418 37.9727C47.1836 37.9727 47.75 38.1426 48.1172 38.4824C48.4883 38.8223 48.6738 39.3672 48.6738 40.1172V44.5H47.9531ZM45.7559 43.8145C46.3613 43.8145 46.8359 43.6484 47.1797 43.3164C47.5273 42.9844 47.7012 42.5195 47.7012 41.9219V41.3418L46.7285 41.3828C45.9551 41.4102 45.3965 41.5312 45.0527 41.7461C44.7129 41.957 44.543 42.2871 44.543 42.7363C44.543 43.0879 44.6484 43.3555 44.8594 43.5391C45.0742 43.7227 45.373 43.8145 45.7559 43.8145Z" fill="white"/>
</svg>
