<svg width="22" height="19" viewBox="0 0 22 19" fill="none" xmlns="http://www.w3.org/2000/svg">
<path d="M8.73453e-08 5.70068C-0.00013528 4.94322 0.157075 4.19333 0.462443 3.49484C0.767811 2.79635 1.21521 2.16327 1.77849 1.6326C2.34178 1.10193 3.00965 0.684318 3.74306 0.404168C4.47648 0.124018 5.26074 -0.0130496 6.05 0.000977471C6.98386 -0.00378125 7.90811 0.181964 8.76149 0.545902C9.61487 0.90984 10.3779 1.44366 11 2.11198C11.6221 1.44366 12.3851 0.90984 13.2385 0.545902C14.0919 0.181964 15.0161 -0.00378125 15.95 0.000977471C16.7393 -0.0130496 17.5235 0.124018 18.2569 0.404168C18.9904 0.684318 19.6582 1.10193 20.2215 1.6326C20.7848 2.16327 21.2322 2.79635 21.5376 3.49484C21.8429 4.19333 22.0001 4.94322 22 5.70068C22 11.3539 14.9831 15.6224 11 19C7.0257 15.5939 8.73453e-08 11.3582 8.73453e-08 5.70068Z" fill="#767676"/>
</svg>
